<mxfile host="app.diagrams.net" modified="2023-05-11T02:50:01.479Z" agent="Mozilla/5.0 (Windows NT 10.0; Win64; x64) AppleWebKit/537.36 (KHTML, like Gecko) Chrome/112.0.0.0 Safari/537.36" version="21.2.2" etag="RMh5wwY-a0nI-tdd_Ugr" type="github">
  <diagram name="Page-1" id="8mtBHamg71PUbX-FDrAm">
    <mxGraphModel>
      <root>
        <mxCell id="0" />
        <mxCell id="1" parent="0" />
      </root>
    </mxGraphModel>
  </diagram>
</mxfile>
